
Genre:Thriller
Language:English
IMDb:http://www.imdb.com/title/tt1297919/
Source:TS RELIZLAB/IMAGINE Thanks!

Format : MPEG-4
Format profile : Base Media
Codec ID : isom
File size : 1.05 GiB
Duration : 1h 31mn
Overall bit rate : 1 635 Kbps

Video
ID : 1
Format : AVC
Format/Info : Advanced Video Codec
Format profile : High@L4.1
Format settings, CABAC : Yes
Format settings, ReFrames : 3 frames
Codec ID : avc1
Codec ID/Info : Advanced Video Coding
Duration : 1h 31mn
Bit rate mode : Variable
Bit rate : 1 500 Kbps
Maximum bit rate : 4 920 Kbps
Width : 640 pixels
Height : 240 pixels
Display aspect ratio : 2.667
Frame rate mode : Constant
Frame rate : 25.000 fps
Color space : YUV
Chroma subsampling : 4:2:0
Bit depth : 8 bits
Scan type : Progressive
Bits/(Pixel*Frame) : 0.391
Stream size : 985 MiB (92%)
Writing library : x264

Audio
ID : 2
Format : AAC
Format/Info : Advanced Audio Codec
Format version : Version 4
Format profile : LC
Format settings, SBR : No
Codec ID : 40
Duration : 1h 31mn
Bit rate mode : Variable
Bit rate : 132.3 Kbps
Maximum bit rate : 271 Kbps
Channel(s) : 2 channels
Channel positions : Front: L R
Sampling rate : 44.1 KHz
Stream size : 87.7 MiB (8%)


Plot:
A tough cop is dispatched to take down a serial killer who has been targeting police officers. 

 
http://leetleech.org/images/65884751770153478283.png
 
http://leetleech.org/images/93470349983175149625.png
 
http://leetleech.org/images/00956124357108257276.png
 
http://leetleech.org/images/98995047323490098199.png